<svg width="261" height="44" viewBox="0 0 261 44" fill="none" xmlns="http://www.w3.org/2000/svg">
<path d="M33.5 28L14 4V28H33.5Z" fill="#B3005E"/>
<path d="M38 28L25 12.5L38 1V28Z" fill="#E90064"/>
<path d="M42 18.5V28L51 13L42 18.5Z" fill="#FF5F9E"/>
<path d="M10 17.5V27.5L0 14L10 17.5Z" fill="#E90064"/>
<path d="M76.7812 9.5H78.2188H88.8438C89.4271 9.52083 89.9062 9.73958 90.2812 10.1562C90.6771 10.5729 90.875 11.0729 90.875 11.6562C90.7708 12.9062 90.0938 13.5833 88.8438 13.6875H77.8438C77.0521 13.7292 76.3958 14.0312 75.875 14.5938C75.3542 15.1562 74.9688 15.8021 74.7188 16.5312C74.4896 17.2396 74.375 17.9688 74.375 18.7188C74.375 19.4688 74.4896 20.2083 74.7188 20.9375C74.9688 21.6458 75.3542 22.2812 75.875 22.8438C76.3958 23.4062 77.0521 23.7083 77.8438 23.75H88.8438C89.4271 23.7708 89.9062 23.9896 90.2812 24.4062C90.6771 24.8229 90.875 25.3229 90.875 25.9062C90.8542 26.4688 90.6458 26.9479 90.25 27.3438C89.875 27.7188 89.4062 27.9167 88.8438 27.9375H77.375H76.7812C75.3229 27.8542 74.1146 27.3021 73.1562 26.2812C72.2188 25.2396 71.5417 24.0625 71.125 22.75C70.7292 21.4375 70.5312 20.0938 70.5312 18.7188C70.5312 17.3438 70.7396 16 71.1562 14.6875C71.5729 13.375 72.25 12.2083 73.1875 11.1875C74.125 10.1458 75.3229 9.58333 76.7812 9.5ZM90.8125 18.5938C90.8125 19.1771 90.6042 19.6667 90.1875 20.0625C89.7917 20.4792 89.3021 20.6875 88.7188 20.6875H79.2812C78.6979 20.6875 78.1979 20.4896 77.7812 20.0938C77.3854 19.6771 77.1875 19.1771 77.1875 18.5938C77.1875 18.0104 77.3854 17.5104 77.7812 17.0938C78.1979 16.6979 78.6979 16.5 79.2812 16.5H88.7188C89.3021 16.5 89.7917 16.7083 90.1875 17.125C90.6042 17.5208 90.8125 18.0104 90.8125 18.5938ZM98.9375 26.2812C97.875 24.8438 96.8125 22.9583 95.75 20.625L93.7188 16.25C93.6146 16.0208 93.5521 15.7708 93.5312 15.5C93.4896 14.9167 93.6667 14.4167 94.0625 14C94.4583 13.5833 94.9792 13.375 95.625 13.375C96.3333 13.375 96.8542 13.5208 97.1875 13.8125C97.5417 14.0833 97.8229 14.4375 98.0312 14.875L99.5 18.5C99.875 19.3542 100.24 20.1667 100.594 20.9375C100.969 21.6875 101.385 22.375 101.844 23C102.323 23.625 102.854 23.9583 103.438 24C104 23.9583 104.531 23.625 105.031 23C105.469 22.375 105.865 21.6875 106.219 20.9375C106.594 20.1667 106.969 19.3542 107.344 18.5L108.812 14.875C109.021 14.4375 109.292 14.0833 109.625 13.8125C109.979 13.5208 110.51 13.375 111.219 13.375C111.865 13.375 112.385 13.5833 112.781 14C113.177 14.4167 113.354 14.9167 113.312 15.5C113.292 15.7708 113.229 16.0208 113.125 16.25L111.094 20.625C110.031 22.9583 108.969 24.8438 107.906 26.2812C106.885 27.6979 105.396 28.4167 103.438 28.4375C101.458 28.4167 99.9583 27.6979 98.9375 26.2812ZM123.188 27.9375C121.354 27.875 119.969 27.4479 119.031 26.6562C118.094 25.8438 117.417 24.9375 117 23.9375C116.583 22.9167 116.375 21.8854 116.375 20.8438C116.375 19.7604 116.573 18.7188 116.969 17.7188C117.385 16.6979 118.062 15.7917 119 15C119.958 14.1875 121.167 13.7708 122.625 13.75H134.5C135.083 13.75 135.573 13.9479 135.969 14.3438C136.385 14.7188 136.594 15.1771 136.594 15.7188C136.594 16.2812 136.385 16.7604 135.969 17.1562C135.573 17.5312 135.083 17.7188 134.5 17.7188H122.812C122.354 17.7188 121.948 17.875 121.594 18.1875C121.26 18.5 121.01 18.9062 120.844 19.4062C120.698 19.9062 120.625 20.3958 120.625 20.875C120.625 21.3958 120.698 21.9062 120.844 22.4062C121.01 22.9062 121.26 23.3125 121.594 23.625C121.948 23.9167 122.354 24.0729 122.812 24.0938H134.5C135.083 24.0938 135.573 24.2812 135.969 24.6562C136.385 25.0312 136.594 25.4792 136.594 26C136.594 26.5417 136.385 27 135.969 27.375C135.573 27.75 135.083 27.9375 134.5 27.9375H123.188ZM136.219 20.7812C136.219 21.1771 136.042 21.5208 135.688 21.8125C135.375 22.0833 134.979 22.2188 134.5 22.2188H124.281C123.802 22.2188 123.396 22.0833 123.062 21.8125C122.729 21.5208 122.562 21.1771 122.562 20.7812C122.562 20.4062 122.729 20.0729 123.062 19.7812C123.396 19.5104 123.802 19.375 124.281 19.375H134.5C134.979 19.375 135.385 19.5208 135.719 19.8125C136.052 20.0833 136.219 20.4062 136.219 20.7812ZM150.156 13.2812C151.24 13.2812 152.302 13.4062 153.344 13.6562C154.406 13.9062 155.417 14.2812 156.375 14.7812C157.333 15.2604 158.177 15.9062 158.906 16.7188C159.656 17.5312 160.062 18.5 160.125 19.625V20.9375V26.2812C160 27.5312 159.312 28.2083 158.062 28.3125C157.479 28.3125 156.969 28.125 156.531 27.75C156.115 27.3542 155.906 26.8646 155.906 26.2812V24.9062V20.5938C155.865 19.9479 155.615 19.4167 155.156 19C154.719 18.5625 154.219 18.2188 153.656 17.9688C153.115 17.7188 152.542 17.5312 151.938 17.4062C151.354 17.2812 150.76 17.2188 150.156 17.2188C149.552 17.2188 148.948 17.2812 148.344 17.4062C147.76 17.5312 147.188 17.7188 146.625 17.9688C146.083 18.2188 145.583 18.5625 145.125 19C144.688 19.4167 144.448 19.9479 144.406 20.5938V24.9062V26.2812C144.302 27.5312 143.625 28.2083 142.375 28.3125C141.792 28.3125 141.281 28.125 140.844 27.75C140.427 27.3542 140.219 26.8646 140.219 26.2812V20.9375V19.625C140.281 18.5 140.677 17.5312 141.406 16.7188C142.135 15.9062 142.979 15.2604 143.938 14.7812C144.896 14.2812 145.896 13.9062 146.938 13.6562C148 13.4062 149.073 13.2812 150.156 13.2812ZM170.875 9C171.458 9 171.958 9.19792 172.375 9.59375C172.792 9.96875 173.01 10.4479 173.031 11.0312V13.75H183.656C184.24 13.75 184.74 13.9479 185.156 14.3438C185.552 14.7604 185.75 15.2604 185.75 15.8438C185.75 16.4271 185.542 16.9271 185.125 17.3438C184.729 17.7396 184.24 17.9375 183.656 17.9375H173.031V18.5625C173.01 19.4167 173.062 20.2083 173.188 20.9375C173.333 21.6458 173.667 22.2812 174.188 22.8438C174.708 23.4062 175.365 23.7083 176.156 23.75H183.781C184.365 23.7708 184.844 23.9896 185.219 24.4062C185.615 24.8229 185.812 25.3229 185.812 25.9062C185.792 26.4688 185.583 26.9479 185.188 27.3438C184.812 27.7188 184.344 27.9167 183.781 27.9375H175.094C173.635 27.8542 172.427 27.3646 171.469 26.4688C170.531 25.5521 169.854 24.4375 169.438 23.125C169.042 21.8125 168.833 20.4167 168.812 18.9375V17.9375H165.219C164.635 17.9375 164.146 17.7292 163.75 17.3125C163.333 16.9167 163.125 16.4271 163.125 15.8438C163.125 15.2604 163.323 14.7708 163.719 14.375C164.135 13.9583 164.635 13.75 165.219 13.75H168.812V11.0312C168.833 10.4688 169.042 10 169.438 9.625C169.833 9.22917 170.312 9.02083 170.875 9ZM195.281 27.9375C193.448 27.875 192.062 27.4479 191.125 26.6562C190.188 25.8438 189.51 24.9375 189.094 23.9375C188.677 22.9167 188.469 21.8854 188.469 20.8438C188.469 19.7604 188.667 18.7188 189.062 17.7188C189.479 16.6979 190.156 15.7917 191.094 15C192.052 14.1875 193.26 13.7708 194.719 13.75H204.844C206.302 13.7708 207.5 14.1875 208.438 15C209.396 15.7917 210.073 16.6979 210.469 17.7188C210.885 18.7188 211.094 19.7604 211.094 20.8438C211.094 21.8854 210.885 22.9167 210.469 23.9375C210.052 24.9375 209.375 25.8438 208.438 26.6562C207.5 27.4479 206.115 27.875 204.281 27.9375H195.281ZM194.594 17.9375C194.198 17.9375 193.854 18.1042 193.562 18.4375C193.271 18.75 193.052 19.125 192.906 19.5625C192.781 19.9792 192.719 20.3958 192.719 20.8125C192.719 21.25 192.781 21.6875 192.906 22.125C193.052 22.5417 193.271 22.9167 193.562 23.25C193.854 23.5625 194.198 23.7292 194.594 23.75H204.969C205.365 23.7292 205.708 23.5625 206 23.25C206.292 22.9167 206.5 22.5417 206.625 22.125C206.771 21.6875 206.844 21.25 206.844 20.8125C206.844 20.3958 206.771 19.9792 206.625 19.5625C206.5 19.125 206.292 18.75 206 18.4375C205.708 18.1042 205.365 17.9375 204.969 17.9375H194.594Z" fill="white"/>
</svg>
