<svg xmlns="http://www.w3.org/2000/svg" viewBox="0 0 1457.99 489.76"><defs><style>.cls-1{fill:#003d69;}.cls-2{fill:#fff;}</style></defs><g id="Layer_2" data-name="Layer 2"><g id="Layer_1-2" data-name="Layer 1"><rect class="cls-1" x="84.74" y="132.88" width="795.14" height="221.27"/><path class="cls-1" d="M0,0V489.76H1458V0ZM1442.15,473.92H15.84V15.84H1442.15Z"/><path class="cls-1" d="M898,133c33.34.09,66.68,0,100,.05,17.14.32,34.91,4.14,48.78,14.72,10,7.21,16.83,18.23,20,30,3.57,13.27,3.73,27.24,2.25,40.83-1.57,13-5.63,26.28-14.76,36-10.27,10.69-24.78,16.2-39.16,18.56-12.59,2.32-25.42,1.43-38.14,1.6-10.51,0-21,0-31.5,0q0,39.74,0,79.48c-15.83,0-31.67,0-47.5,0Q898,243.63,898,133Zm47.49,38.82q0,32.36,0,64.72c13.82,0,27.63,0,41.45,0,9.45.22,19.63-1.69,26.8-8.28,6.56-6,8.5-15.28,8.68-23.81,0-8-1.09-16.63-6.52-22.85-6.14-7-15.85-9.44-24.83-9.81C975.87,171.76,960.67,171.74,945.48,171.79Z"/><path class="cls-1" d="M1124.1,163.94c11.79-4.19,24.43-5.59,36.89-5.43a112.29,112.29,0,0,1,41,6.94c7.06,2.67,14.17,6,19.29,11.73,8.17,8.57,10.57,20.89,10.67,32.35q0,40,0,80c.12,7.28-.34,14.72,1.42,21.84.88,4,4.42,6.46,7.82,8.24,0,2.13,0,4.26,0,6.41q-24,0-48.08,0c-2.59-5.92-3.37-12.39-4-18.77-8.07,8.06-17.42,15-28,19.38a70.53,70.53,0,0,1-47.38,1c-11.6-4.07-22.13-12.38-27-23.88-4.91-11.79-5.08-25.23-2-37.5,3.31-12.84,12.92-23.54,24.9-29,17.42-8.12,36.94-8.88,55.68-11.48,6.64-1.1,13.86-2.17,19-6.85,4.85-4.6,4.27-12.53,1-17.86-3.45-4.91-9.71-6.46-15.31-7.32-9.12-1.13-18.91-1.47-27.41,2.55-7.34,3.47-10.52,11.71-11.84,19.22-14.25,0-28.49,0-42.73,0,.78-11.64,3.79-23.47,10.66-33.07C1104.93,173.69,1114.15,167.49,1124.1,163.94Zm15,96.52c-6,2.72-11,8.33-11.71,15-1.06,7.07.38,15.56,6.63,19.92,7.65,5.61,17.94,5.06,26.72,2.92,9-2.61,18.62-7.28,22.86-16.23,5.58-10.94,3.87-23.52,4.21-35.35C1173,255.77,1154.62,253.53,1139.07,260.46Z"/><path class="cls-1" d="M1245.39,158.75q24.24,0,48.48,0,9.45,30.34,18.92,60.68c5.62-20.2,11-40.46,16.66-60.67,15.39,0,30.78,0,46.18,0-17.8,65.07-35.7,130.11-53.27,195.24-15.41,0-30.81,0-46.2,0,4.71-17.25,9.31-34.52,14-51.76Q1267.78,230.5,1245.39,158.75Z"/><path class="cls-2" d="M238.22,175.36c-9-9.6-22.25-14.18-35.19-14.49-26-.05-52.06,0-78.08,0-.17,6.11-.07,12.22-.07,18.33q35.07,0,70.12,0c7.89.29,16.41,1.33,22.73,6.53,5.9,4.69,8.32,12.48,8.24,19.8.09,7.12-1.45,15-6.95,20-6.35,5.4-14.85,7.38-23,7.91q-24.18,0-48.36,0c-.08-14,0-27.91,0-41.86-7.59,0-15.18,0-22.77,0q0,63.19,0,126.38c7.58,0,15.16,0,22.74,0q0-33.21,0-66.4H202c10.94-.38,22.42-2.77,31-10,11.66-10,17.43-26,15.61-41.18C247.89,191.22,244.59,182.08,238.22,175.36Z"/><path class="cls-2" d="M415,206.59c-12.57-6.83-27.58-7.8-41.45-5.33a50.3,50.3,0,0,0-31.23,19.68c-10.12,13.51-13.08,31.12-12.09,47.64.76,14.17,5.48,28.7,15.85,38.79,9.44,10,23.41,14.58,36.92,14.53,14.59.39,30.22-2.93,41.11-13.27,11.46-11.28,17.18-27.35,18.14-43.19.73-11.89,0-24.24-4.85-35.28C433.09,219.92,424.74,211.74,415,206.59ZM412.46,293a26,26,0,0,1-18.28,11.64c-10.86,2-23.43.32-31.54-7.77-7.86-8.35-11-20.05-11.51-31.25-.41-12.93,2.17-26.45,9.74-37.17,4.49-6.43,12-10.22,19.66-11.16,9.89-1.26,20.86.29,28.62,7,6.75,5.87,10,14.71,11.26,23.37C422.32,263.05,420.41,279.39,412.46,293Z"/><path class="cls-2" d="M320.48,201.17c-6.28-.56-12.86-.71-18.72,2-8.68,3.95-15.45,11.27-20.68,19.08.08-6.28,0-12.56,0-18.84H261.61q0,57.26,0,114.49,10.25,0,20.48,0,0-33.21,0-66.41a31.56,31.56,0,0,1,12.25-24.6c7.49-5.48,17.33-6.54,26.29-5.23C320.53,214.81,320.84,208,320.48,201.17Z"/><path class="cls-2" d="M834.37,302.47c-4.46.47-9,.78-13.47-.12a7.58,7.58,0,0,1-5.9-7.85q0-37.67,0-75.34h19.4c0-5.25,0-10.51,0-15.76H815c0-10.67,0-21.34,0-32H794c0,10.66,0,21.33,0,32H777.86c0,5.26,0,10.51,0,15.77H794c0,24.11,0,48.21,0,72.32.19,7,.54,14.49,4.64,20.46,3,4.84,8.88,6.79,14.28,7.48,7.18.53,14.51.38,21.49-1.57C834.35,312.72,834.37,307.59,834.37,302.47Z"/><path class="cls-2" d="M620.09,209.35c-9.31-8.35-22.73-9.34-34.62-8.12a42.52,42.52,0,0,0-29.17,17.32c-3.11-5.17-6.85-10.23-12.24-13.19-9.09-5-20.09-5.42-30.1-3.58-10.81,2.05-19.43,9.55-26.29,17.73-.07-5.37,0-10.75,0-16.12h-20q0,57.24,0,114.48c6.79,0,13.58,0,20.37,0q0-30.18,0-60.37c0-6.86.57-13.83,2.82-20.35,4.71-14.64,22.75-22.62,37-17.52a14.48,14.48,0,0,1,9,9c2,6.08,1.95,12.57,2,18.89q0,35.19,0,70.38c6.91,0,13.82,0,20.74,0q0-34.18,0-68.37c.13-7.4,1.49-15.28,6.3-21.17,8.72-10.16,25-13.14,36.61-6.47,5.78,3.23,7.12,10.41,7.28,16.48.12,26.5,0,53,.06,79.51H631q0-39.7,0-79.42C630.61,228,628.22,216.65,620.09,209.35Z"/><path class="cls-2" d="M766.36,251.48c-.69-14.3-5.79-29-16.83-38.63-11.2-10.52-27.67-14.41-42.57-11.4-11,1.88-20.59,8.58-27.55,17.09-.08-4.89,0-9.78,0-14.67-6.69,0-13.38,0-20.06,0q0,68.37,0,136.76c6.76,0,13.53,0,20.29,0,0-11.8,0-23.6,0-35.39,4.07,4.43,8.31,8.91,13.72,11.74,8.87,4.76,19.31,5.31,29.14,4.31,14.64-1.91,28.33-10.81,35.45-23.83C765.71,283.56,767.22,267.09,766.36,251.48Zm-24.75,32.6c-3.88,10-12.69,18.4-23.44,20.26-10.12,1.7-21.57-.48-28.93-8.06s-9.9-18.45-10.22-28.71c-.27-12.26.77-25.18,7.05-36a27.61,27.61,0,0,1,19.41-13.48c9.26-1.54,19.6-.2,27,6,7.25,6.1,10.79,15.49,12.24,24.63C746.37,260.47,745.85,272.86,741.61,284.08Z"/><path class="cls-1" d="M961,61.51H949c0,11.76-.22,23.52.73,35.25-1.91-12.13-6.63-23.52-10.16-35.21q-4.62-.09-9.22,0c-3.49,11.7-8.35,23.06-10.09,35.22,0-6.1,1-12.16.75-18.26-.17-4.69,1-10.44-3-13.91-5.33-4.47-14.27-4.3-19.36.49a8.85,8.85,0,0,0-.45,12.29c2.66,3.14,6.9,4.06,10.83,4.26,0,8.31,0,16.62,0,24.94-.12,2.76,1.18,5.89,4.1,6.63,3.2.71,6.55.19,9.83.33q6-17,12.06-34c3.46,11.31,7.15,22.55,10.47,33.9,3.9,0,8,.7,11.78-.51,3.06-.92,3.71-4.5,3.73-7.26C961,90.92,961,76.22,961,61.51ZM908,74.86a3.55,3.55,0,1,1,3.55-3.55A3.55,3.55,0,0,1,908,74.86Z"/><path class="cls-1" d="M1019.11,72.21c4-.56,7.36-3,9.88-6.11-3-2-6-3.85-9-5.74-2.06,2-4.94,3.63-7.79,2.29-7.07-2.72-15.63-3.49-22.25.81-5.75,3.39-8.86,9.87-9.84,16.27,9.24.33,19.07-1,27.75,2.9,4.58,2.05,2.46,7.65,2.93,11.53-5.75-.39-12.35,3.13-13,9.3-.73,6.59,6.12,11.6,12.26,11.11,5.65.43,12.1-3.13,12.68-9.21.21-6.3,0-12.61.09-18.92a9.74,9.74,0,0,0-4.7-9.09c-7-4.17-15.48-4.18-23.37-5,1.5-1.54,3.22-3,5.47-3.27C1006.77,68,1012.48,73.79,1019.11,72.21ZM1013,104.1a3.55,3.55,0,1,1-3.55-3.55A3.55,3.55,0,0,1,1013,104.1Z"/><path class="cls-1" d="M1096.24,75.52c0-5.28-4-9.56-8.4-12-6.93-3.6-15.13-3.59-22.68-2.51-8.85,1.28-17.33,7.43-19.35,16.46q6.17,0,12.36,0c3.35-8.18,14.2-10.63,21.65-6.87a8.83,8.83,0,0,1,4.65,7.94c0,7,.07,14,0,20.94.15,2.57-1.74,5.18-4.43,5.24-5.66.55-11.36.13-17,.26,0-2.32,0-4.64,0-7,5.54.45,12.25-2.56,13.19-8.56,1-6.74-6-11.91-12.21-11.54-5.5-.36-12.09,2.84-12.69,8.86-.16,8.89,0,17.79-.07,26.68q12.9,0,25.82,0c4.76,0,9.88.5,14.27-1.79,3.43-1.66,4.94-5.65,4.91-9.28C1096.26,93.47,1096.24,84.49,1096.24,75.52Zm-35.37,12.79a3.55,3.55,0,1,1,3.55,3.55A3.55,3.55,0,0,1,1060.87,88.31Z"/><path class="cls-1" d="M1131.55,74.89a3.55,3.55,0,1,1,3.55-3.55A3.55,3.55,0,0,1,1131.55,74.89Z"/><path class="cls-1" d="M1225.74,101c-2-4.87-7.55-7-12.49-6.8q0-16.34,0-32.68-6,0-12,0c0,13.69,0,27.38,0,41.07,0,3.32.81,7,3.58,9.1a15.24,15.24,0,0,0,18.23-.14C1225.93,109,1227.45,104.6,1225.74,101Zm-11.25,6.64a3.55,3.55,0,1,1,3.55-3.55A3.54,3.54,0,0,1,1214.49,107.63Z"/><path class="cls-1" d="M1308,61.51h-12c0,11.77-.17,23.53.69,35.27-1.81-12.15-6.63-23.52-10.11-35.22-3.09-.07-6.16-.08-9.23,0-3.44,11.7-8.42,23-10,35.2-.14-6.11,1-12.18.68-18.3-.09-4.89,1-11-3.58-14.34-5.61-4-14.48-3.7-19.28,1.48a8.84,8.84,0,0,0,0,11.76c2.65,3.16,6.92,4.08,10.86,4.3,0,8.34,0,16.69,0,25-.1,2.72,1.19,5.79,4,6.52,3.22.72,6.57.2,9.86.34,4-11.32,7.94-22.69,12.1-34,3.42,11.29,7.13,22.5,10.43,33.84,3.87,0,7.93.68,11.71-.47,3.09-.88,3.78-4.47,3.8-7.26C1308,91,1308,76.23,1308,61.51Zm-53,13.35a3.55,3.55,0,1,1,3.55-3.55A3.55,3.55,0,0,1,1255,74.86Z"/><path class="cls-1" d="M1364,61.51c0,12.71,0,25.42,0,38.13a4.75,4.75,0,0,1-4.87,4.78c-5.62.23-11.24,0-16.86.08.21-3.59-.63-7.45.8-10.84,3-3.37,8-1.36,11.94-1.9q0-4.38,0-8.76c-4.33-.48-9.63,1.42-13.12-1.93,4.42-.34,9.28-2.09,11.31-6.36,2.66-5-.88-11.62-6.28-12.76-5.22-1-11.47-.87-15.4,3.21s-2.18,10.27-2.5,15.41c-.4,4.29,4,7,7.69,7.66-3.32.79-6.24,3.78-6.19,7.31,0,6,0,12,0,18,10.51,0,21,0,31.53,0,3.67,0,7.7-.66,10.56-3.19,2.83-2.37,3.29-6.33,3.41-9.78q0-19.53,0-39Zm-25.42,9.8a3.55,3.55,0,1,1,3.54,3.55A3.54,3.54,0,0,1,1338.57,71.31Z"/><path class="cls-1" d="M1384.66,30.65c-3.21-1.12-6.42-2.21-9.64-3.24-.74,2.64-2.35,5.14-5.06,6-4.29,1.48-9.24,1.27-13,4.13a9.8,9.8,0,0,0-3,12.92c4.16,7.17,17.06,6.89,20.09-1.11,1.24-3-.23-6-2.25-8.11C1377.43,40.14,1383.83,37,1384.66,30.65Zm-20.81,19.14a3,3,0,1,1,3-3A3,3,0,0,1,1363.85,49.79Z"/><path class="cls-1" d="M1021.77,32.51c-1.46,5.79-6.08,10.23-11.28,12.83,1.34-3.25,2.12-7.27,0-10.4-3-4.81-9.88-5.47-14.79-3.58-4.38,1.58-7.23,7.49-4.27,11.52,1.55,2.65,4.48,4,7.42,4.43a32.9,32.9,0,0,1-5.8,4.94c2.82,1.19,5.45,3.74,8.74,3.19,7-1,14-3,19.85-7.08a24.9,24.9,0,0,0,10.85-15.84Q1027.15,32.49,1021.77,32.51Zm-21.11,9.4a3,3,0,1,1,3-3A3,3,0,0,1,1000.66,41.91Z"/><path class="cls-1" d="M1160.74,61.51c0,12.25-.06,24.5,0,36.75a39.24,39.24,0,0,0-16.25-8c-.25-7,.27-14-.25-20.93-3.06-11.24-23-10.42-24.79,1.29-.57,7,7,11.32,13.22,10.72,0,2.84,0,5.68,0,8.53-6.91.62-14.93,6-13.71,13.77,1.41,10.17,16,13,23,6.8,3.11-2.75,2.49-7.19,2.48-10.9a28.55,28.55,0,0,1,14.91,14c3.66-.11,7.81.74,11-1.57,2.18-1.76,2.33-4.76,2.35-7.34q0-21.52,0-43.06Q1166.74,61.49,1160.74,61.51Zm-28.63,43.64a2.79,2.79,0,0,1-3.46-.32,1.27,1.27,0,0,1-.23-.34c-2-3.12,1.16-6.15,4.28-6.68,0,.3,0,.59,0,.89v4S1132.78,104.74,1132.11,105.15Z"/></g></g></svg>